<mxfile host="app.diagrams.net" modified="2024-03-01T09:48:17.167Z" agent="Mozilla/5.0 (Windows NT 10.0; Win64; x64) AppleWebKit/537.36 (KHTML, like Gecko) Chrome/122.0.0.0 Safari/537.36" etag="TUwwimSZHrypsBfw7eQn" version="24.0.0" type="github">
  <diagram name="Page-1" id="hbLg6Ft3V-cluZovsI7G">
    <mxGraphModel dx="1434" dy="1846" grid="1" gridSize="10" guides="1" tooltips="1" connect="1" arrows="1" fold="1" page="1" pageScale="1" pageWidth="850" pageHeight="1100" math="0" shadow="0">
      <root>
        <mxCell id="0" />
        <mxCell id="1" parent="0" />
        <mxCell id="Uv4hyLvzbi6f2YotPCt0-1" value="服务器1" style="whiteSpace=wrap;html=1;aspect=fixed;" vertex="1" parent="1">
          <mxGeometry x="220" y="400" width="80" height="80" as="geometry" />
        </mxCell>
        <mxCell id="Uv4hyLvzbi6f2YotPCt0-2" value="服务器2" style="whiteSpace=wrap;html=1;aspect=fixed;" vertex="1" parent="1">
          <mxGeometry x="390" y="400" width="80" height="80" as="geometry" />
        </mxCell>
        <mxCell id="Uv4hyLvzbi6f2YotPCt0-3" value="服务器2" style="whiteSpace=wrap;html=1;aspect=fixed;" vertex="1" parent="1">
          <mxGeometry x="560" y="400" width="80" height="80" as="geometry" />
        </mxCell>
        <mxCell id="Uv4hyLvzbi6f2YotPCt0-4" value="万兆交换机" style="rounded=0;whiteSpace=wrap;html=1;" vertex="1" parent="1">
          <mxGeometry x="210" y="270" width="580" height="60" as="geometry" />
        </mxCell>
        <mxCell id="Uv4hyLvzbi6f2YotPCt0-5" value="负载均衡器（使用服务器充当）" style="whiteSpace=wrap;html=1;aspect=fixed;" vertex="1" parent="1">
          <mxGeometry x="450" y="150" width="80" height="80" as="geometry" />
        </mxCell>
        <mxCell id="Uv4hyLvzbi6f2YotPCt0-6" value="万兆交换机" style="rounded=0;whiteSpace=wrap;html=1;" vertex="1" parent="1">
          <mxGeometry x="210" y="50" width="590" height="60" as="geometry" />
        </mxCell>
        <mxCell id="Uv4hyLvzbi6f2YotPCt0-7" value="终端" style="whiteSpace=wrap;html=1;aspect=fixed;" vertex="1" parent="1">
          <mxGeometry x="280" y="-50" width="50" height="50" as="geometry" />
        </mxCell>
        <mxCell id="Uv4hyLvzbi6f2YotPCt0-8" value="终端" style="whiteSpace=wrap;html=1;aspect=fixed;" vertex="1" parent="1">
          <mxGeometry x="375" y="-50" width="50" height="50" as="geometry" />
        </mxCell>
        <mxCell id="Uv4hyLvzbi6f2YotPCt0-9" value="终端" style="whiteSpace=wrap;html=1;aspect=fixed;" vertex="1" parent="1">
          <mxGeometry x="450" y="-50" width="50" height="50" as="geometry" />
        </mxCell>
        <mxCell id="Uv4hyLvzbi6f2YotPCt0-10" value="终端" style="whiteSpace=wrap;html=1;aspect=fixed;" vertex="1" parent="1">
          <mxGeometry x="520" y="-50" width="50" height="50" as="geometry" />
        </mxCell>
        <mxCell id="Uv4hyLvzbi6f2YotPCt0-11" value="终端" style="whiteSpace=wrap;html=1;aspect=fixed;" vertex="1" parent="1">
          <mxGeometry x="600" y="-50" width="50" height="50" as="geometry" />
        </mxCell>
        <mxCell id="Uv4hyLvzbi6f2YotPCt0-12" value="服务器数量不固定" style="text;html=1;align=center;verticalAlign=middle;whiteSpace=wrap;rounded=0;" vertex="1" parent="1">
          <mxGeometry x="710" y="420" width="100" height="30" as="geometry" />
        </mxCell>
        <mxCell id="Uv4hyLvzbi6f2YotPCt0-13" value="" style="endArrow=none;html=1;rounded=0;exitX=0.5;exitY=0;exitDx=0;exitDy=0;entryX=0.091;entryY=0.983;entryDx=0;entryDy=0;entryPerimeter=0;" edge="1" parent="1" source="Uv4hyLvzbi6f2YotPCt0-1" target="Uv4hyLvzbi6f2YotPCt0-4">
          <mxGeometry width="50" height="50" relative="1" as="geometry">
            <mxPoint x="770" y="310" as="sourcePoint" />
            <mxPoint x="820" y="260" as="targetPoint" />
          </mxGeometry>
        </mxCell>
        <mxCell id="Uv4hyLvzbi6f2YotPCt0-14" value="" style="endArrow=none;html=1;rounded=0;exitX=0.5;exitY=0;exitDx=0;exitDy=0;entryX=0.383;entryY=1.067;entryDx=0;entryDy=0;entryPerimeter=0;" edge="1" parent="1" source="Uv4hyLvzbi6f2YotPCt0-2" target="Uv4hyLvzbi6f2YotPCt0-4">
          <mxGeometry width="50" height="50" relative="1" as="geometry">
            <mxPoint x="770" y="310" as="sourcePoint" />
            <mxPoint x="820" y="260" as="targetPoint" />
          </mxGeometry>
        </mxCell>
        <mxCell id="Uv4hyLvzbi6f2YotPCt0-15" value="" style="endArrow=none;html=1;rounded=0;exitX=0.5;exitY=0;exitDx=0;exitDy=0;entryX=0.684;entryY=1.067;entryDx=0;entryDy=0;entryPerimeter=0;" edge="1" parent="1" source="Uv4hyLvzbi6f2YotPCt0-3" target="Uv4hyLvzbi6f2YotPCt0-4">
          <mxGeometry width="50" height="50" relative="1" as="geometry">
            <mxPoint x="770" y="310" as="sourcePoint" />
            <mxPoint x="820" y="260" as="targetPoint" />
          </mxGeometry>
        </mxCell>
        <mxCell id="Uv4hyLvzbi6f2YotPCt0-17" value="千兆网卡" style="text;html=1;align=center;verticalAlign=middle;whiteSpace=wrap;rounded=0;" vertex="1" parent="1">
          <mxGeometry x="530" y="360" width="60" height="30" as="geometry" />
        </mxCell>
        <mxCell id="Uv4hyLvzbi6f2YotPCt0-18" value="千兆网卡" style="text;html=1;align=center;verticalAlign=middle;whiteSpace=wrap;rounded=0;" vertex="1" parent="1">
          <mxGeometry x="360" y="340" width="60" height="30" as="geometry" />
        </mxCell>
        <mxCell id="Uv4hyLvzbi6f2YotPCt0-19" value="千兆网卡" style="text;html=1;align=center;verticalAlign=middle;whiteSpace=wrap;rounded=0;" vertex="1" parent="1">
          <mxGeometry x="180" y="350" width="60" height="30" as="geometry" />
        </mxCell>
        <mxCell id="Uv4hyLvzbi6f2YotPCt0-21" value="" style="endArrow=none;html=1;rounded=0;exitX=0.25;exitY=1;exitDx=0;exitDy=0;entryX=0.443;entryY=0.033;entryDx=0;entryDy=0;entryPerimeter=0;" edge="1" parent="1" source="Uv4hyLvzbi6f2YotPCt0-5" target="Uv4hyLvzbi6f2YotPCt0-4">
          <mxGeometry width="50" height="50" relative="1" as="geometry">
            <mxPoint x="770" y="310" as="sourcePoint" />
            <mxPoint x="820" y="260" as="targetPoint" />
          </mxGeometry>
        </mxCell>
        <mxCell id="Uv4hyLvzbi6f2YotPCt0-23" value="万兆网卡" style="text;html=1;align=center;verticalAlign=middle;whiteSpace=wrap;rounded=0;" vertex="1" parent="1">
          <mxGeometry x="475" y="240" width="60" height="30" as="geometry" />
        </mxCell>
        <mxCell id="Uv4hyLvzbi6f2YotPCt0-24" value="数百个终端" style="text;html=1;align=center;verticalAlign=middle;whiteSpace=wrap;rounded=0;" vertex="1" parent="1">
          <mxGeometry x="690" y="-40" width="90" height="30" as="geometry" />
        </mxCell>
        <mxCell id="Uv4hyLvzbi6f2YotPCt0-27" value="" style="endArrow=none;html=1;rounded=0;entryX=0.469;entryY=1.05;entryDx=0;entryDy=0;entryPerimeter=0;exitX=0.5;exitY=0;exitDx=0;exitDy=0;" edge="1" parent="1" source="Uv4hyLvzbi6f2YotPCt0-5" target="Uv4hyLvzbi6f2YotPCt0-6">
          <mxGeometry width="50" height="50" relative="1" as="geometry">
            <mxPoint x="490" y="140" as="sourcePoint" />
            <mxPoint x="820" y="260" as="targetPoint" />
          </mxGeometry>
        </mxCell>
        <mxCell id="Uv4hyLvzbi6f2YotPCt0-28" value="万兆网卡" style="text;html=1;align=center;verticalAlign=middle;whiteSpace=wrap;rounded=0;" vertex="1" parent="1">
          <mxGeometry x="490" y="120" width="60" height="30" as="geometry" />
        </mxCell>
        <mxCell id="Uv4hyLvzbi6f2YotPCt0-29" value="" style="endArrow=none;html=1;rounded=0;entryX=0.5;entryY=1;entryDx=0;entryDy=0;exitX=0.158;exitY=0.033;exitDx=0;exitDy=0;exitPerimeter=0;" edge="1" parent="1" source="Uv4hyLvzbi6f2YotPCt0-6" target="Uv4hyLvzbi6f2YotPCt0-7">
          <mxGeometry width="50" height="50" relative="1" as="geometry">
            <mxPoint x="770" y="310" as="sourcePoint" />
            <mxPoint x="820" y="260" as="targetPoint" />
          </mxGeometry>
        </mxCell>
        <mxCell id="Uv4hyLvzbi6f2YotPCt0-30" value="" style="endArrow=none;html=1;rounded=0;entryX=0.5;entryY=1;entryDx=0;entryDy=0;exitX=0.305;exitY=0.167;exitDx=0;exitDy=0;exitPerimeter=0;" edge="1" parent="1" source="Uv4hyLvzbi6f2YotPCt0-6">
          <mxGeometry width="50" height="50" relative="1" as="geometry">
            <mxPoint x="289.48" y="175.99" as="sourcePoint" />
            <mxPoint x="398" y="1" as="targetPoint" />
          </mxGeometry>
        </mxCell>
        <mxCell id="Uv4hyLvzbi6f2YotPCt0-31" value="" style="endArrow=none;html=1;rounded=0;entryX=0.25;entryY=1;entryDx=0;entryDy=0;exitX=0.432;exitY=0.05;exitDx=0;exitDy=0;exitPerimeter=0;" edge="1" parent="1" source="Uv4hyLvzbi6f2YotPCt0-6" target="Uv4hyLvzbi6f2YotPCt0-9">
          <mxGeometry width="50" height="50" relative="1" as="geometry">
            <mxPoint x="406" y="63" as="sourcePoint" />
            <mxPoint x="408" y="11" as="targetPoint" />
          </mxGeometry>
        </mxCell>
        <mxCell id="Uv4hyLvzbi6f2YotPCt0-32" value="" style="endArrow=none;html=1;rounded=0;entryX=0.5;entryY=1;entryDx=0;entryDy=0;exitX=0.158;exitY=0.033;exitDx=0;exitDy=0;exitPerimeter=0;" edge="1" parent="1">
          <mxGeometry width="50" height="50" relative="1" as="geometry">
            <mxPoint x="535" y="50" as="sourcePoint" />
            <mxPoint x="537" y="-2" as="targetPoint" />
          </mxGeometry>
        </mxCell>
        <mxCell id="Uv4hyLvzbi6f2YotPCt0-33" value="" style="endArrow=none;html=1;rounded=0;entryX=0.5;entryY=1;entryDx=0;entryDy=0;exitX=0.158;exitY=0.033;exitDx=0;exitDy=0;exitPerimeter=0;" edge="1" parent="1">
          <mxGeometry width="50" height="50" relative="1" as="geometry">
            <mxPoint x="624" y="52" as="sourcePoint" />
            <mxPoint x="626" as="targetPoint" />
          </mxGeometry>
        </mxCell>
        <mxCell id="Uv4hyLvzbi6f2YotPCt0-34" value="千兆网卡" style="text;html=1;align=center;verticalAlign=middle;whiteSpace=wrap;rounded=0;" vertex="1" parent="1">
          <mxGeometry x="230" width="60" height="30" as="geometry" />
        </mxCell>
        <mxCell id="Uv4hyLvzbi6f2YotPCt0-36" value="千兆网卡" style="text;html=1;align=center;verticalAlign=middle;whiteSpace=wrap;rounded=0;" vertex="1" parent="1">
          <mxGeometry x="440" y="10" width="60" height="30" as="geometry" />
        </mxCell>
        <mxCell id="Uv4hyLvzbi6f2YotPCt0-37" value="千兆网卡" style="text;html=1;align=center;verticalAlign=middle;whiteSpace=wrap;rounded=0;" vertex="1" parent="1">
          <mxGeometry x="520" y="10" width="60" height="30" as="geometry" />
        </mxCell>
        <mxCell id="Uv4hyLvzbi6f2YotPCt0-38" value="千兆网卡" style="text;html=1;align=center;verticalAlign=middle;whiteSpace=wrap;rounded=0;" vertex="1" parent="1">
          <mxGeometry x="620" y="10" width="60" height="30" as="geometry" />
        </mxCell>
        <mxCell id="Uv4hyLvzbi6f2YotPCt0-41" value="千兆网卡" style="text;html=1;align=center;verticalAlign=middle;whiteSpace=wrap;rounded=0;" vertex="1" parent="1">
          <mxGeometry x="330" y="10" width="60" height="30" as="geometry" />
        </mxCell>
      </root>
    </mxGraphModel>
  </diagram>
</mxfile>
